<svg width="61" height="33" viewBox="0 0 61 33" fill="none" xmlns="http://www.w3.org/2000/svg">
<path d="M26.8275 32.5575H25.9087L10.1003 6.36461V22.681C10.1003 28.5255 12.4784 31.4485 17.2344 31.4485V32.5575H0.912598V31.4485C6.0739 31.4485 8.6681 28.5255 8.6681 22.681V4.06461C7.371 2.19751 5.2903 1.27751 2.3988 1.27751H1.0477V0.114014H19.7475L31.8268 20.381L42.1765 0.114014H60.3899V1.27751H58.8499C57.5259 1.27751 56.6069 1.33161 56.0659 1.41281C55.8499 1.41281 55.5799 1.46691 55.3099 1.60221C55.0399 1.73751 54.7959 1.87281 54.5529 2.03511C54.0669 2.41401 53.7689 2.84691 53.6609 3.33401C53.5529 3.82101 53.4719 4.14571 53.4449 4.33511C53.4179 4.52461 53.3909 4.82221 53.3909 5.22811L53.3369 6.63511V26.0635C53.3369 27.4975 53.4179 28.5255 53.5529 29.0935C53.6879 29.6625 54.0129 30.1495 54.4989 30.5285C54.8499 30.7445 55.3369 30.9885 55.9309 31.2585L58.8229 31.4485H60.3629V32.5575H34.9344V31.4485H36.4747C37.7988 31.4485 38.6636 31.3935 39.1229 31.3125C39.3662 31.3125 39.5823 31.2855 39.7445 31.2045C39.9066 31.1505 39.9877 31.0965 40.0417 31.0965L40.7713 30.5555C41.2307 30.2035 41.555 29.7165 41.7442 29.0935C41.9063 28.3635 41.9874 27.3355 41.9874 26.0095V3.19872L26.8275 32.5575ZM6.31709 30.9065L5.64159 31.4485H10.4516L9.641 30.3925H6.9927L6.31709 30.9065ZM15.559 1.25041H7.23589C7.45209 1.35871 7.6413 1.43981 7.7494 1.52101C7.8574 1.60221 8.01959 1.73751 8.26279 1.92691L9.2356 2.73871H16.5048L15.559 1.25041ZM9.2626 29.5265L9.01939 28.5255L8.88429 27.6595L8.452 28.6335L7.7764 29.6085L9.2626 29.5265ZM9.88419 3.57751L10.2084 4.06461L10.9381 5.30931L11.1813 5.68811H18.2613L16.9642 3.57751H9.88419ZM11.6677 6.49981L12.9107 8.58341H19.9907L18.7477 6.49981H11.6677ZM13.4512 9.39511L14.6942 11.5057H21.7202L20.4771 9.39511H13.4512ZM15.1807 12.3446L16.4237 14.4551H23.5037L22.2607 12.3446H15.1807ZM16.9101 15.294L18.2072 17.3775H25.2332L23.9901 15.294H16.9101ZM18.6936 18.1893L19.9367 20.2998H27.0167L25.7196 18.1893H18.6936ZM20.4231 21.1116L21.6661 23.1951H28.7461L27.5031 21.1116H20.4231ZM22.1526 24.0069L23.4497 26.1175H28.8813L29.6109 24.6835L29.2326 24.0069H22.1526ZM23.9361 26.9565L25.1791 29.0665H27.341L28.4489 26.9565H23.9361ZM25.6655 29.9055L26.3411 30.9615L26.9626 29.9055H25.6655ZM42.8249 29.9055C42.7169 30.2035 42.5549 30.4465 42.3389 30.6905L41.609 31.4755H50.6079C50.3109 31.0695 50.0669 30.5555 49.8509 29.9325H42.8249V29.9055ZM43.3119 26.9565L43.2579 27.9575L43.0679 29.0665H49.7159V28.6885L49.6619 27.5245V26.9565H43.3119ZM50.6349 1.25041H43.3119V2.73871H49.8509C49.9589 2.25161 50.2019 1.76461 50.6349 1.25041ZM43.3119 3.57751V5.68811H49.6619V5.14691L49.7159 3.90221V3.57751H43.3119ZM43.3119 6.49981V8.58341H49.6619V6.49981H43.3119ZM43.3119 9.39511V11.5057H49.6619V9.39511H43.3119ZM43.3119 12.3446V14.4551H49.6619V12.3446H43.3119ZM43.3119 15.294V17.3775H49.6619V15.294H43.3119ZM43.3119 18.1893V20.2998H49.6619V18.1893H43.3119ZM43.3119 21.1116V23.1951H49.6619V21.1116H43.3119ZM43.3119 24.0069V26.1175H49.6619V24.0069H43.3119Z" fill="#231F20"/>
</svg>
