<svg width="135" height="135" viewBox="0 0 135 135" fill="none" xmlns="http://www.w3.org/2000/svg">
<path d="M63.0439 130.771C63.0709 130.04 63.7194 129.472 64.4491 129.499C65.1787 129.526 65.7462 130.176 65.7191 130.906C65.6921 131.664 65.0436 132.205 64.314 132.178C63.5573 132.124 63.0169 131.474 63.0439 130.771Z" fill="#231F20"/>
<path d="M45.3438 130.338L46.6678 130.717L50.6943 125.44L51.2617 132.07L52.586 132.476L54.8829 124.656L53.7208 124.304L52.1535 129.743L51.7212 123.736L50.7484 123.438L47.2084 128.282L48.8027 122.87L47.6407 122.518L45.3438 130.338Z" fill="#231F20"/>
<path d="M35.1023 123.763C35.5347 123.411 35.967 123.059 36.3994 122.707C36.8318 122.356 37.2641 122.004 37.7235 121.625L35.7508 120.462L35.1023 123.763ZM33.7241 124.737L35.2374 116.213L36.3453 116.863L35.886 119.352L38.5342 120.894C38.8585 120.624 39.1828 120.353 39.507 120.083C39.8313 119.812 40.1826 119.514 40.4799 119.271L41.5878 119.92L34.9131 125.44L33.7241 124.737Z" fill="#231F20"/>
<path d="M27.3734 112.209C26.4006 112.75 25.4548 113.318 24.482 113.859C23.5092 114.4 22.5363 114.969 21.5905 115.51L20.6177 114.644L28.076 110.423L29.0489 111.316L25.644 119.217L24.6712 118.351L27.3734 112.209Z" fill="#231F20"/>
<path d="M11.7812 103.658L12.646 103.063L15.1861 106.634L17.1049 105.282L14.6997 101.899L15.5645 101.304L17.9696 104.686L20.1044 103.171L17.4562 99.4097L18.3209 98.8137L21.6716 103.523L15.024 108.231L11.7812 103.658Z" fill="#231F20"/>
<path d="M10.349 93.1856L9.51127 91.1566C9.43017 90.9936 9.34917 90.8316 9.21397 90.7236C9.07887 90.6156 8.94377 90.5066 8.78167 90.4526C8.61947 90.3986 8.45737 90.3446 8.26817 90.3446C8.07907 90.3446 7.91687 90.3716 7.72777 90.4526C7.56567 90.5336 7.40347 90.6156 7.29537 90.7506C7.18727 90.8856 7.07917 91.0206 7.02517 91.1836C6.97107 91.3456 6.94407 91.5086 6.94407 91.6706C6.94407 91.8596 6.97107 92.0226 7.05217 92.2116L7.88987 94.2406L10.349 93.1856ZM7.26837 89.3436C7.61967 89.2086 7.97097 89.1266 8.32227 89.1536C8.70057 89.1806 9.02487 89.2626 9.34917 89.4516C9.37617 89.2896 9.40317 89.1266 9.48427 88.9916C9.56527 88.8566 9.64637 88.7206 9.75447 88.6126C9.86257 88.5046 9.97067 88.3966 10.1058 88.3156C10.2409 88.2336 10.376 88.1526 10.5111 88.0986L11.6191 87.6386C11.7812 87.5846 11.9163 87.4766 12.0785 87.3406C12.2136 87.2056 12.3757 87.0706 12.4838 86.8806L12.9973 88.0986C12.9432 88.1796 12.8892 88.2606 12.8081 88.3156C12.727 88.3696 12.646 88.4236 12.5649 88.4776C12.4838 88.5316 12.4027 88.5586 12.3217 88.6126C12.2406 88.6396 12.1866 88.6936 12.1055 88.7206L10.9705 89.2086C10.8354 89.2626 10.7273 89.3166 10.6463 89.4246C10.5382 89.5056 10.4571 89.6406 10.4031 89.7496C10.349 89.8846 10.322 90.0196 10.322 90.2096C10.322 90.3716 10.376 90.5606 10.4571 90.7776L11.2948 92.8066L14.4024 91.5086L14.8618 92.6176L7.34947 95.7566L6.05237 92.6176C5.89017 92.2386 5.80917 91.8596 5.83617 91.5356C5.83617 91.1836 5.91727 90.8586 6.02527 90.5886C6.16047 90.2906 6.32257 90.0466 6.53877 89.8576C6.78197 89.6136 7.02517 89.4516 7.26837 89.3436Z" fill="#231F20"/>
<path d="M10.3272 78.5527L2.36084 80.1987L2.60664 81.3917L10.5729 79.7457L10.3272 78.5527Z" fill="#231F20"/>
<path d="M5.13371 70.0236C5.70121 70.0236 6.21461 69.9424 6.62001 69.78C7.02531 69.6177 7.37661 69.4283 7.64681 69.1847C7.91711 68.9412 8.13331 68.6706 8.24131 68.373C8.34941 68.0753 8.43051 67.7777 8.43051 67.453C8.43051 67.1283 8.34941 66.8577 8.24131 66.5871C8.10621 66.3436 7.94411 66.1 7.75491 65.9106C7.53881 65.7212 7.32261 65.5589 7.05231 65.4506C6.78211 65.3424 6.51191 65.2342 6.24171 65.2071L6.21461 63.9895C6.67401 64.0706 7.07941 64.2059 7.48471 64.3953C7.89001 64.5847 8.21431 64.8283 8.51161 65.0989C8.80881 65.3965 9.05201 65.7212 9.21421 66.1271C9.37631 66.533 9.48441 66.9659 9.48441 67.4259C9.48441 67.9942 9.40331 68.5083 9.21421 68.9683C9.02501 69.4283 8.72781 69.8342 8.37651 70.1589C7.99811 70.4836 7.53881 70.7271 6.99831 70.9165C6.45781 71.1059 5.83631 71.1871 5.16071 71.2142C4.80941 71.2142 4.45811 71.1871 4.10681 71.133C3.75551 71.0518 3.43131 70.9706 3.10701 70.8083C2.80971 70.673 2.51251 70.4836 2.24231 70.2942C1.97201 70.1047 1.75591 69.8612 1.53971 69.5906C1.32351 69.32 1.18841 69.0224 1.08031 68.6977C0.972213 68.373 0.918113 68.0212 0.891113 67.6153C0.891113 67.1283 0.945213 66.6953 1.08031 66.2894C1.21541 65.9106 1.40461 65.5589 1.64781 65.2612C1.89101 64.9636 2.18821 64.72 2.51251 64.5036C2.83681 64.2871 3.21511 64.1247 3.62041 64.0165L3.64751 65.2612C3.08001 65.4777 2.64761 65.7753 2.35041 66.1542C2.08011 66.533 1.94501 67.02 1.94501 67.5883C1.94501 67.9671 2.05311 68.2918 2.21521 68.5895C2.40441 68.8871 2.62061 69.1577 2.91781 69.3742C3.21511 69.5906 3.53941 69.753 3.94471 69.8612C4.29601 69.9965 4.70131 70.0506 5.13371 70.0236Z" fill="#231F20"/>
<path d="M2.43148 53.8965L6.07958 54.7624L3.32328 50.1624L3.64748 48.7283L6.05258 52.6518C6.48488 52.4895 6.94428 52.3 7.40368 52.1106C7.86308 51.9212 8.34948 51.7318 8.80888 51.5424C9.29528 51.353 9.75468 51.1636 10.2141 51.0012C10.6735 50.8118 11.1329 50.6495 11.5653 50.4601L11.241 51.813L6.64708 53.6259L7.51178 55.0871L10.3222 55.7365L10.052 56.9001L2.13428 55.033L2.43148 53.8965Z" fill="#231F20"/>
<path d="M11.3218 38.2023C11.9974 38.527 12.2676 39.3388 11.9434 39.9882C11.6191 40.6646 10.8084 40.9352 10.1328 40.6105C9.45728 40.2858 9.18698 39.4741 9.51128 38.8246C9.86258 38.1211 10.6733 37.8776 11.3218 38.2023Z" fill="#231F20"/>
<path d="M14.5647 27.1082L20.1044 31.4917L22.5365 28.3799L23.3742 29.0293L20.2125 33.0882L13.8081 28.0552L14.5647 27.1082Z" fill="#231F20"/>
<path d="M24.0497 16.907L27.4816 21.1012C27.6707 21.3176 27.8869 21.507 28.1031 21.6153C28.3193 21.7235 28.5625 21.8047 28.8057 21.8047C29.0489 21.8317 29.2651 21.8047 29.5083 21.7235C29.7245 21.6423 29.9136 21.5612 30.1028 21.3988C30.292 21.2365 30.4541 21.0741 30.5622 20.8576C30.6973 20.6412 30.7784 20.4247 30.8324 20.1812C30.8865 19.9376 30.8594 19.6941 30.8054 19.4506C30.7513 19.207 30.6162 18.9635 30.4271 18.72L26.9681 14.4988L27.8869 13.7412L31.3188 17.9082C31.535 18.1517 31.6701 18.4223 31.7782 18.6659C31.8863 18.9364 31.9403 19.207 31.9674 19.4506C31.9944 19.6941 31.9674 19.9917 31.9404 20.2353C31.8863 20.5059 31.8052 20.7494 31.6971 20.9659C31.5891 21.2094 31.4539 21.4259 31.2918 21.6423C31.1297 21.8588 30.9675 22.0212 30.7513 22.1835C30.4811 22.4 30.1568 22.5894 29.8055 22.7247C29.4542 22.86 29.0759 22.9141 28.6976 22.9141C28.3193 22.9141 27.941 22.8059 27.5626 22.6435C27.1843 22.4541 26.833 22.1835 26.5358 21.8047L23.1309 17.6647L24.0497 16.907Z" fill="#231F20"/>
<path d="M38.2906 11.9553C38.5068 12.4153 38.777 12.7942 39.0743 13.0918C39.3715 13.3894 39.6688 13.633 40.0201 13.7683C40.3444 13.9306 40.6686 13.9847 41.0199 13.9847C41.3442 13.9847 41.6685 13.9036 41.9928 13.7683C42.236 13.66 42.4521 13.4706 42.6413 13.2271C42.8305 12.9836 42.9656 12.713 43.0466 12.3883C43.1277 12.0636 43.1818 11.7659 43.1818 11.4142C43.1818 11.0624 43.1277 10.7377 43.0196 10.44L40.8308 11.4953L40.3714 10.5483L43.5871 8.9789L45.5057 12.9294L44.7491 13.3083L44.1005 12.253C44.0735 12.5506 44.0195 12.8212 43.9114 13.0647C43.8033 13.3083 43.6682 13.5518 43.506 13.7683C43.3439 13.9847 43.1818 14.1742 42.9926 14.3094C42.8034 14.4718 42.6143 14.58 42.4251 14.6883C41.9117 14.9318 41.3982 15.0671 40.8848 15.0671C40.3714 15.0671 39.885 14.9589 39.4256 14.7694C38.9662 14.553 38.5338 14.2553 38.1555 13.8765C37.7772 13.4977 37.4529 13.0106 37.1827 12.4694C37.0205 12.1447 36.9124 11.82 36.8314 11.4683C36.7503 11.1165 36.6963 10.7647 36.6963 10.413C36.6963 10.0612 36.7233 9.7365 36.7773 9.3847C36.8584 9.06 36.9665 8.73529 37.1286 8.43769C37.2908 8.13999 37.4799 7.86939 37.7502 7.62589C37.9934 7.38239 38.2906 7.16589 38.6419 7.00359C39.0743 6.78709 39.5066 6.65179 39.912 6.62469C40.3173 6.57059 40.6957 6.59769 41.074 6.70589C41.4523 6.81419 41.8036 6.94939 42.1279 7.16589C42.4521 7.38239 42.7494 7.65299 43.0466 7.95059L41.9117 8.49179C41.4793 8.05889 41.0199 7.78829 40.5605 7.70709C40.1011 7.62589 39.6147 7.67999 39.1013 7.95059C38.777 8.11299 38.5068 8.32939 38.3176 8.62709C38.1285 8.92469 37.9934 9.24939 37.9123 9.60119C37.8582 9.95299 37.8312 10.3318 37.9123 10.7647C37.9663 11.1436 38.1015 11.5494 38.2906 11.9553Z" fill="#231F20"/>
<path d="M53.937 3.5671C53.8559 4.1353 53.7748 4.6765 53.6937 5.2177C53.6126 5.7589 53.5316 6.3271 53.4506 6.8953L55.6935 6.4083L53.937 3.5671ZM54.3152 1.9165L58.9361 9.2494L57.6932 9.52L56.3419 7.3553L53.3425 8.0047C53.2884 8.4106 53.2344 8.8436 53.1803 9.2765C53.1263 9.7094 53.0723 10.1424 53.0182 10.5483L51.748 10.8189L52.9641 2.2141L54.3152 1.9165Z" fill="#231F20"/>
<path d="M66.8272 4.24362L69.016 4.27062C69.2052 4.27062 69.3673 4.24362 69.5295 4.16242C69.6916 4.10832 69.8267 4.00002 69.9618 3.89182C70.097 3.78362 70.178 3.62122 70.2591 3.45892C70.3402 3.29652 70.3672 3.10712 70.3672 2.91772C70.3672 2.72832 70.3402 2.56592 70.2861 2.40362C70.2321 2.24122 70.124 2.10592 70.0159 1.97062C69.9078 1.86242 69.7727 1.75422 69.5835 1.70002C69.4214 1.61892 69.2322 1.59182 69.0431 1.59182L66.8542 1.56472L66.8272 4.24362ZM71.5832 2.97182C71.5832 3.35062 71.5021 3.70242 71.34 4.02712C71.1779 4.35182 70.9347 4.62242 70.6374 4.86592C70.7995 4.94712 70.9076 5.05532 71.0157 5.16362C71.1238 5.27182 71.2049 5.40712 71.2589 5.56952C71.313 5.70482 71.367 5.86712 71.394 6.02952C71.4211 6.19182 71.4211 6.32712 71.4211 6.48952L71.394 7.68002C71.394 7.84242 71.4211 8.00482 71.4751 8.19422C71.5292 8.38362 71.6102 8.57302 71.7183 8.76242L70.3942 8.73532C70.3402 8.65422 70.3131 8.57302 70.2861 8.46482C70.2591 8.35652 70.2321 8.27532 70.2321 8.19422C70.2321 8.11302 70.205 8.00482 70.205 7.92362C70.205 7.84242 70.205 7.76122 70.205 7.70712L70.2321 6.46242C70.2321 6.32712 70.205 6.19182 70.178 6.05652C70.124 5.92122 70.0699 5.81302 69.9618 5.70482C69.8537 5.59652 69.7457 5.51532 69.5835 5.46122C69.4214 5.40712 69.2322 5.35302 69.016 5.35302L66.8272 5.32592L66.7731 8.68122L65.5571 8.65422L65.6922 0.509521L69.0701 0.563622C69.4754 0.563622 69.8537 0.644823 70.151 0.807123C70.4753 0.969523 70.7185 1.13182 70.9347 1.37532C71.1508 1.59182 71.313 1.86242 71.4211 2.16002C71.5292 2.40362 71.5832 2.70122 71.5832 2.97182Z" fill="#231F20"/>
<path d="M88.8509 11.4141L90.2829 12.0094C90.6339 12.1717 90.9859 12.2258 91.3369 12.2258C91.6879 12.2258 92.0399 12.1447 92.3369 12.0094C92.6609 11.8741 92.9579 11.6576 93.2019 11.3599C93.4719 11.0623 93.6879 10.7105 93.8769 10.2776C94.0659 9.79046 94.1739 9.35756 94.2019 8.95166C94.2289 8.54576 94.1739 8.19406 94.0389 7.86936C93.9039 7.54456 93.7149 7.27406 93.4719 7.03046C93.2019 6.78696 92.9039 6.59756 92.5529 6.46226L91.1209 5.86696L88.8509 11.4141ZM90.4989 4.40576L93.3639 5.59636C93.8769 5.81286 94.2829 6.11046 94.6069 6.46226C94.9309 6.84106 95.1739 7.24696 95.3089 7.70696C95.4449 8.16696 95.4989 8.65406 95.4719 9.16816C95.4449 9.68226 95.3089 10.1964 95.0929 10.7105C94.8769 11.2517 94.5799 11.7117 94.2289 12.0905C93.8769 12.4694 93.4719 12.7941 93.0399 13.0105C92.6069 13.227 92.1479 13.3352 91.6609 13.3623C91.1749 13.3894 90.6889 13.3082 90.2019 13.0917L87.3379 11.9011L90.4989 4.40576Z" fill="#231F20"/>
<path d="M108.929 14.6882L108.307 15.527L104.74 12.9835L103.389 14.8776L106.74 17.2858L106.119 18.1517L102.768 15.7435L101.254 17.8541L104.957 20.5329L104.335 21.3988L99.6597 18.0164L104.389 11.4141L108.929 14.6882Z" fill="#231F20"/>
<path d="M125.305 33.3317L124.413 33.9L122.008 30.22L120.062 31.4917L122.305 34.9823L121.414 35.5506L119.171 32.06L116.982 33.4941L119.468 37.3364L118.576 37.9317L115.414 33.0611L122.251 28.6235L125.305 33.3317Z" fill="#231F20"/>
<path d="M129.872 42.7754L125.359 48.3765L131.142 46.2659L131.574 47.4024L123.927 50.1895L123.44 48.8636L128.007 43.2624L122.17 45.4001L121.765 44.2636L129.385 41.4495L129.872 42.7754Z" fill="#231F20"/>
<path d="M129.872 57.82C129.304 57.8741 128.818 58.0094 128.412 58.1988C128.007 58.3882 127.683 58.6317 127.44 58.8752C127.196 59.1458 127.007 59.4164 126.926 59.7411C126.818 60.0388 126.791 60.3635 126.818 60.6611C126.845 60.9858 126.953 61.2564 127.088 61.5C127.251 61.7435 127.44 61.96 127.656 62.1223C127.872 62.2847 128.115 62.42 128.385 62.5282C128.656 62.6094 128.926 62.6905 129.223 62.6905L129.358 63.9082C128.899 63.8811 128.467 63.7729 128.061 63.6376C127.656 63.5023 127.278 63.2858 126.953 63.0152C126.629 62.7447 126.359 62.447 126.143 62.0682C125.926 61.6894 125.791 61.2564 125.737 60.7964C125.683 60.2282 125.71 59.7141 125.845 59.227C126.007 58.74 126.251 58.3341 126.575 57.9823C126.926 57.6305 127.359 57.3329 127.872 57.0894C128.385 56.8458 129.007 56.7105 129.683 56.6294C130.034 56.6023 130.385 56.5752 130.736 56.6294C131.088 56.6564 131.439 56.7376 131.763 56.8458C132.088 56.9541 132.385 57.0894 132.682 57.2788C132.952 57.4682 133.223 57.6847 133.439 57.9282C133.655 58.1717 133.844 58.4694 133.979 58.7941C134.114 59.1188 134.222 59.4705 134.249 59.8494C134.303 60.3364 134.276 60.7694 134.195 61.1752C134.114 61.5811 133.952 61.9329 133.736 62.2576C133.52 62.5823 133.25 62.8529 132.952 63.0964C132.628 63.3399 132.277 63.5294 131.898 63.6917L131.763 62.447C132.331 62.1764 132.709 61.8517 132.952 61.4458C133.196 61.04 133.277 60.5529 133.223 59.9847C133.169 59.6329 133.06 59.3082 132.844 59.0105C132.628 58.74 132.385 58.4964 132.061 58.307C131.763 58.1176 131.385 57.9823 131.007 57.9011C130.682 57.7929 130.277 57.7658 129.872 57.82Z" fill="#231F20"/>
<path d="M134.249 73.4871L128.872 72.8377C128.575 72.8107 128.304 72.8107 128.061 72.8918C127.818 72.973 127.602 73.0812 127.413 73.2436C127.224 73.406 127.088 73.5683 126.98 73.7848C126.872 74.0012 126.791 74.1907 126.764 74.4071C126.737 74.6507 126.737 74.8942 126.791 75.1107C126.845 75.3537 126.926 75.5707 127.061 75.7867C127.196 76.0037 127.359 76.1657 127.602 76.3017C127.818 76.4367 128.088 76.5447 128.385 76.5717L133.79 77.2217L133.655 78.4117L128.304 77.7627C127.98 77.7357 127.71 77.6537 127.44 77.5187C127.169 77.4107 126.953 77.2487 126.764 77.0857C126.575 76.8967 126.386 76.7067 126.251 76.4907C126.116 76.2737 126.007 76.0307 125.899 75.7867C125.818 75.5437 125.764 75.3001 125.737 75.0295C125.71 74.7589 125.71 74.5154 125.737 74.2718C125.791 73.9201 125.899 73.5683 126.062 73.2165C126.224 72.8648 126.467 72.5671 126.737 72.3236C127.007 72.0801 127.359 71.8636 127.764 71.7283C128.169 71.593 128.602 71.566 129.088 71.6201L134.412 72.2695L134.249 73.4871Z" fill="#231F20"/>
<path d="M129.709 92.3735L128.709 92.0225L130.195 87.8825L127.979 87.0975L126.601 90.9935L125.601 90.6425L126.979 86.7455L124.52 85.8525L122.98 90.1825L121.98 89.8305L123.926 84.3645L131.6 87.0975L129.709 92.3735Z" fill="#231F20"/>
<path d="M124.981 101.764L117.82 101.547L123.008 104.876L122.359 105.904L115.496 101.52L116.279 100.303L123.494 100.546L118.252 97.2177L118.9 96.1897L125.764 100.573L124.981 101.764Z" fill="#231F20"/>
<path d="M112.145 117.323L111.415 116.565L113.253 114.752L108.307 109.692L109.172 108.853L114.117 113.913L115.982 112.073L116.712 112.858L112.145 117.323Z" fill="#231F20"/>
<path d="M102.119 120.218L100.255 121.354C100.093 121.463 99.9566 121.571 99.8756 121.706C99.7676 121.842 99.7136 122.004 99.6596 122.166C99.6326 122.329 99.6056 122.518 99.6326 122.68C99.6596 122.843 99.7136 123.032 99.8216 123.194C99.9296 123.357 100.038 123.492 100.174 123.573C100.309 123.682 100.471 123.736 100.633 123.79C100.795 123.817 100.957 123.844 101.146 123.79C101.309 123.763 101.498 123.709 101.66 123.6L103.524 122.464L102.119 120.218ZM98.7946 123.871C98.6056 123.546 98.4976 123.222 98.4436 122.843C98.4166 122.491 98.4436 122.112 98.5786 121.76C98.4166 121.76 98.2546 121.76 98.0926 121.706C97.9306 121.652 97.7956 121.598 97.6866 121.49C97.5516 121.409 97.4436 121.3 97.3356 121.192C97.2276 121.084 97.1466 120.949 97.0656 120.813L96.4436 119.785C96.3626 119.65 96.2546 119.514 96.0926 119.379C95.9306 119.244 95.7686 119.136 95.5796 119.027L96.6876 118.351C96.7686 118.405 96.8496 118.432 96.9306 118.513C97.0116 118.567 97.0656 118.649 97.1466 118.73C97.2006 118.811 97.2546 118.865 97.3086 118.946C97.3626 119.027 97.3896 119.082 97.4436 119.136L98.0926 120.191C98.1736 120.299 98.2546 120.407 98.3626 120.489C98.4706 120.57 98.5786 120.651 98.7136 120.678C98.8486 120.705 99.0116 120.705 99.1736 120.678C99.3356 120.651 99.5246 120.57 99.7136 120.462L101.579 119.325L99.8216 116.457L100.849 115.834L105.092 122.789L102.2 124.547C101.849 124.764 101.498 124.899 101.146 124.926C100.795 124.98 100.471 124.953 100.174 124.872C99.8756 124.791 99.6056 124.656 99.3626 124.466C99.1466 124.304 98.9306 124.087 98.7946 123.871Z" fill="#231F20"/>
<path d="M84.6348 127.794C84.7978 128.281 84.9868 128.687 85.2298 129.039C85.4728 129.391 85.7428 129.634 86.0408 129.851C86.3378 130.04 86.6618 130.176 86.9858 130.203C87.3108 130.23 87.6618 130.23 87.9858 130.122C88.3098 130.013 88.6078 129.851 88.8508 129.607C89.0938 129.364 89.2828 129.093 89.4178 128.769C89.5538 128.444 89.6078 128.065 89.6078 127.632C89.6078 127.226 89.5268 126.766 89.3638 126.279C89.2018 125.792 89.0128 125.386 88.7698 125.034C88.5268 124.683 88.2558 124.439 87.9588 124.223C87.6618 124.033 87.3378 123.898 87.0128 123.871C86.6888 123.817 86.3378 123.844 86.0138 123.952C85.6888 124.06 85.3918 124.223 85.1488 124.466C84.9058 124.71 84.7158 124.98 84.5808 125.305C84.4458 125.63 84.3918 126.009 84.3918 126.441C84.3918 126.847 84.4728 127.307 84.6348 127.794ZM83.4728 128.146C83.2838 127.551 83.1758 126.983 83.1758 126.441C83.1758 125.9 83.2568 125.386 83.4458 124.926C83.6358 124.466 83.9058 124.087 84.2838 123.736C84.6618 123.384 85.1218 123.14 85.6888 122.951C86.2568 122.762 86.7968 122.707 87.2838 122.762C87.7698 122.816 88.2288 122.978 88.6618 123.249C89.0668 123.519 89.4448 123.871 89.7428 124.304C90.0668 124.764 90.3098 125.278 90.4988 125.873C90.6888 126.469 90.7968 127.037 90.7968 127.605C90.7968 128.146 90.7158 128.66 90.5258 129.12C90.3368 129.58 90.0668 129.986 89.6888 130.311C89.3098 130.663 88.8508 130.906 88.2828 131.096C87.7158 131.285 87.2028 131.339 86.6888 131.285C86.1758 131.231 85.7158 131.069 85.3108 130.798C84.9058 130.527 84.5268 130.176 84.2028 129.743C83.9328 129.283 83.6898 128.769 83.4728 128.146Z" fill="#231F20"/>
<path d="M74.2581 128.417C74.2311 128.146 74.15 127.876 74.0149 127.659C73.9068 127.443 73.7447 127.253 73.5825 127.091C73.3934 126.929 73.2042 126.82 72.961 126.739C72.7178 126.658 72.4746 126.631 72.2043 126.658C71.9611 126.685 71.745 126.712 71.5288 126.793C71.3126 126.874 71.1234 126.956 70.9613 127.091C70.7992 127.226 70.6911 127.361 70.61 127.551C70.5289 127.74 70.5019 127.957 70.5019 128.227C70.5289 128.444 70.583 128.633 70.7181 128.769C70.8262 128.904 70.9883 129.039 71.1775 129.147C71.3666 129.256 71.5828 129.337 71.826 129.391C72.0692 129.445 72.3124 129.526 72.5557 129.58C72.8799 129.661 73.2312 129.77 73.5555 129.851C73.8798 129.932 74.204 130.067 74.4743 130.23C74.7445 130.392 74.9877 130.581 75.1498 130.852C75.339 131.096 75.4471 131.42 75.4741 131.799C75.5012 132.151 75.4471 132.449 75.339 132.746C75.2309 133.017 75.0418 133.26 74.8256 133.45C74.5824 133.639 74.3121 133.801 73.9879 133.937C73.6636 134.045 73.2853 134.126 72.8799 134.153C72.3395 134.18 71.8801 134.153 71.5018 134.018C71.1234 133.883 70.8262 133.693 70.583 133.45C70.3398 133.206 70.1506 132.936 70.0425 132.638C69.9074 132.34 69.8263 132.043 69.7993 131.772L71.0153 131.61C71.0424 131.853 71.1234 132.097 71.2315 132.286C71.3396 132.476 71.4747 132.638 71.6369 132.746C71.799 132.881 71.9611 132.963 72.1773 133.017C72.3665 133.071 72.5827 133.098 72.7989 133.071C72.988 133.044 73.1772 133.017 73.3663 132.963C73.5555 132.909 73.7176 132.827 73.8527 132.746C73.9879 132.638 74.096 132.53 74.177 132.367C74.2581 132.205 74.2851 132.043 74.2851 131.853C74.2581 131.637 74.2041 131.447 74.0689 131.312C73.9608 131.177 73.7987 131.041 73.6095 130.933C73.4204 130.825 73.2042 130.744 72.961 130.663C72.7178 130.609 72.4746 130.527 72.2043 130.473C71.8801 130.392 71.5288 130.284 71.2045 130.203C70.8802 130.094 70.583 129.959 70.3128 129.797C70.0425 129.634 69.8263 129.445 69.6372 129.201C69.448 128.958 69.367 128.66 69.3399 128.281C69.3129 127.876 69.3669 127.524 69.475 127.199C69.6102 126.874 69.7993 126.604 70.0425 126.387C70.2857 126.171 70.61 125.981 70.9613 125.846C71.3126 125.711 71.7179 125.63 72.1503 125.603C72.5286 125.576 72.934 125.603 73.3123 125.711C73.6906 125.819 74.0419 125.981 74.3392 126.225C74.6364 126.469 74.9066 126.766 75.1228 127.118C75.339 127.47 75.4471 127.876 75.5011 128.336L74.2581 128.417Z" fill="#231F20"/>
</svg>
